<?xml version="1.0" encoding="utf-8"?>
<!-- Generator: Adobe Illustrator 19.0.0, SVG Export Plug-In . SVG Version: 6.00 Build 0)  -->
<svg version="1.1" id="Camada_1" xmlns="http://www.w3.org/2000/svg" xmlns:xlink="http://www.w3.org/1999/xlink" x="0px" y="0px"
	 viewBox="0 0 126.2 71.5" style="enable-background:new 0 0 126.2 71.5;" xml:space="preserve">
<style type="text/css">
	.st0{fill:#FFFFFF;}
	.st1{fill:#808080;}
</style>
<g>
	<g>
		<path class="st0" d="M63,30.6c-10.3,0-18.7,8.4-18.7,18.7c0,10.3,8.4,18.7,18.7,18.7c10.3,0,18.7-8.4,18.7-18.7
			C81.7,39,73.3,30.6,63,30.6z M63,66.5c-9.5,0-17.1-7.7-17.1-17.1S53.5,32.2,63,32.2s17.1,7.7,17.1,17.1S72.5,66.5,63,66.5z"/>
		<path class="st1" d="M71,45.7l-8,8l-8-8c-0.3-0.3-0.8-0.3-1.1,0c-0.3,0.3-0.3,0.8,0,1.1l8.6,8.6c0.2,0.2,0.4,0.2,0.6,0.2
			c0.2,0,0.4-0.1,0.6-0.2l8.6-8.6c0.3-0.3,0.3-0.8,0-1.1C71.8,45.4,71.3,45.4,71,45.7z"/>
	</g>
	<g id="XMLID_1_">
		<path id="XMLID_2_" class="st0" d="M14.5,14.3c-0.1,0.8-0.3,1.5-0.5,2.1c-0.3,0.6-0.6,1.1-1.1,1.6c-0.5,0.4-1,0.8-1.6,1
			c-0.6,0.2-1.3,0.3-2.1,0.3c-0.8,0-1.6-0.2-2.3-0.5S5.6,18,5.1,17.4C4.6,16.8,4.3,16,4,15.2s-0.4-1.8-0.4-2.8v-1.9
			c0-1,0.1-2,0.4-2.8c0.3-0.8,0.6-1.6,1.1-2.2c0.5-0.6,1.1-1.1,1.8-1.4c0.7-0.3,1.5-0.5,2.3-0.5c0.8,0,1.5,0.1,2.1,0.3
			c0.6,0.2,1.2,0.5,1.6,1c0.4,0.4,0.8,1,1.1,1.6s0.4,1.3,0.5,2.1h-1.2C13.2,8,13,7.4,12.8,6.9c-0.2-0.5-0.5-0.9-0.8-1.2
			c-0.3-0.3-0.7-0.6-1.2-0.8c-0.5-0.2-1-0.3-1.6-0.3c-0.7,0-1.3,0.1-1.8,0.4C6.8,5.4,6.4,5.8,6,6.3C5.6,6.8,5.4,7.4,5.2,8.1
			C5,8.8,4.9,9.6,4.9,10.4v1.9c0,0.8,0.1,1.6,0.3,2.3C5.3,15.4,5.6,16,6,16.5c0.4,0.5,0.8,0.9,1.3,1.2c0.5,0.3,1.1,0.4,1.8,0.4
			c1.3,0,2.3-0.3,2.9-1c0.7-0.6,1.1-1.6,1.2-2.9H14.5z"/>
		<path id="XMLID_4_" class="st0" d="M25.4,14.8h-6.6L17.2,19h-1.3l5.5-15.2h1.2L28.2,19h-1.3L25.4,14.8z M19.1,13.7H25L22,5.4
			L19.1,13.7z"/>
		<path id="XMLID_7_" class="st0" d="M31.9,3.8l5.4,13.4l5.4-13.4h1.6V19h-1.2v-6.6l0.1-6.8L37.8,19h-1L31.4,5.7l0.1,6.7V19h-1.2
			V3.8H31.9z"/>
		<path id="XMLID_9_" class="st0" d="M49.3,12.8V19h-1.2V3.8h5c0.8,0,1.5,0.1,2.1,0.3s1.1,0.5,1.5,0.9c0.4,0.4,0.7,0.9,0.9,1.4
			C57.8,7.1,58,7.7,58,8.4c0,0.7-0.1,1.3-0.3,1.9c-0.2,0.6-0.5,1-0.9,1.4s-0.9,0.7-1.5,0.9c-0.6,0.2-1.3,0.3-2.1,0.3H49.3z
			 M49.3,11.7H53c0.6,0,1.2-0.1,1.7-0.3s0.8-0.4,1.1-0.7s0.5-0.7,0.7-1.1c0.1-0.4,0.2-0.9,0.2-1.3c0-0.5-0.1-0.9-0.2-1.3
			c-0.1-0.4-0.4-0.8-0.7-1.1c-0.3-0.3-0.7-0.6-1.1-0.8c-0.5-0.2-1-0.3-1.7-0.3h-3.7V11.7z"/>
		<path id="XMLID_12_" class="st0" d="M67.2,14.8h-6.6L59.1,19h-1.3l5.5-15.2h1.2L70,19h-1.3L67.2,14.8z M61,13.7h5.9l-2.9-8.3
			L61,13.7z"/>
		<path id="XMLID_15_" class="st0" d="M83,19h-1.2L73.4,6v13h-1.2V3.8h1.2l8.4,13v-13H83V19z"/>
		<path id="XMLID_17_" class="st0" d="M97.5,19h-1.2v-7.3H88V19h-1.2V3.8H88v6.8h8.3V3.8h1.2V19z"/>
		<path id="XMLID_19_" class="st0" d="M109.3,14.8h-6.6l-1.5,4.3h-1.3l5.5-15.2h1.2l5.5,15.2h-1.3L109.3,14.8z M103.1,13.7h5.9
			L106,5.4L103.1,13.7z"/>
		<path id="XMLID_22_" class="st0" d="M122.5,15.3c0-0.4-0.1-0.8-0.2-1.1c-0.1-0.3-0.4-0.6-0.7-0.9c-0.3-0.3-0.7-0.5-1.2-0.7
			c-0.5-0.2-1.1-0.4-1.9-0.7c-0.7-0.2-1.4-0.5-2-0.7s-1.1-0.6-1.5-0.9c-0.4-0.3-0.7-0.7-1-1.2c-0.2-0.4-0.3-1-0.3-1.6
			c0-0.6,0.1-1.1,0.4-1.6s0.6-0.9,1-1.2c0.4-0.3,1-0.6,1.6-0.8c0.6-0.2,1.3-0.3,2-0.3c0.8,0,1.5,0.1,2.1,0.4c0.6,0.2,1.1,0.6,1.6,1
			c0.4,0.4,0.8,0.9,1,1.4c0.2,0.6,0.4,1.1,0.4,1.8h-1.2c0-0.5-0.1-1-0.3-1.4c-0.2-0.4-0.4-0.8-0.7-1.1c-0.3-0.3-0.7-0.5-1.2-0.7
			s-1-0.3-1.6-0.3s-1.1,0.1-1.6,0.2s-0.8,0.4-1.1,0.6c-0.3,0.3-0.5,0.6-0.7,0.9c-0.2,0.3-0.2,0.7-0.2,1.1c0,0.4,0.1,0.7,0.2,1
			c0.1,0.3,0.3,0.6,0.7,0.9c0.3,0.3,0.7,0.5,1.2,0.7c0.5,0.2,1.1,0.4,1.9,0.6c0.8,0.2,1.5,0.5,2.1,0.7c0.6,0.3,1.1,0.6,1.5,0.9
			s0.7,0.8,0.9,1.2c0.2,0.5,0.3,1,0.3,1.6c0,0.6-0.1,1.2-0.4,1.7c-0.3,0.5-0.6,0.9-1,1.2s-1,0.6-1.6,0.8s-1.3,0.3-2,0.3
			c-0.4,0-0.9,0-1.3-0.1c-0.4-0.1-0.9-0.2-1.3-0.4c-0.4-0.2-0.8-0.4-1.1-0.6c-0.4-0.2-0.7-0.5-0.9-0.9c-0.3-0.3-0.5-0.7-0.6-1.2
			s-0.2-0.9-0.2-1.5h1.2c0,0.6,0.1,1.2,0.4,1.6c0.3,0.4,0.6,0.8,1,1.1c0.4,0.3,0.9,0.5,1.4,0.6c0.5,0.1,1,0.2,1.5,0.2
			c0.6,0,1.1-0.1,1.5-0.2s0.9-0.3,1.2-0.6c0.3-0.3,0.6-0.6,0.8-0.9C122.4,16.1,122.5,15.7,122.5,15.3z"/>
	</g>
</g>
</svg>
